HIERARCHY
ROOT SpineBase
{
  OFFSET 0.000000 0.000000 0.000000
  CHANNELS 6 Xposition Yposition Zposition Zrotation Xrotation Yrotation
  JOINT SpineMid
  {
    OFFSET -0.000000 33.346478 -0.000000
    CHANNELS 3 Zrotation Xrotation Yrotation
    JOINT SpineShoulder
    {
      OFFSET -0.035404 24.658363 -0.760539
      CHANNELS 3 Zrotation Xrotation Yrotation
      JOINT Neck
      {
        OFFSET -0.034324 8.138436 -0.593988
        CHANNELS 3 Zrotation Xrotation Yrotation
        JOINT Head
        {
          OFFSET 0.619326 8.894970 5.422741
          CHANNELS 3 Zrotation Xrotation Yrotation
          End Site
          {
            OFFSET 0 0 0
          }
        }
      }
      JOINT ShoulderLeft
      {
        OFFSET -0.813853 -5.381605 -11.377860
        CHANNELS 3 Zrotation Xrotation Yrotation
        JOINT ElbowLeft
        {
          OFFSET 7.456071 -26.141667 -8.755853
          CHANNELS 3 Zrotation Xrotation Yrotation
          JOINT WristLeft
          {
            OFFSET 7.260975 -19.370081 0.226446
            CHANNELS 3 Zrotation Xrotation Yrotation
            JOINT HandLeft
            {
              OFFSET 0.213190 -8.054088 3.698974
              CHANNELS 3 Zrotation Xrotation Yrotation
              JOINT HandTipLeft
              {
                OFFSET 0.340127 -7.816987 0.795483
                CHANNELS 3 Zrotation Xrotation Yrotation
                End Site
                {
                  OFFSET 0 0 0
                }
              }
              JOINT ThumbLeft
              {
                OFFSET -2.870638 0.570624 2.921589
                CHANNELS 3 Zrotation Xrotation Yrotation
                End Site
                {
                  OFFSET 0 0 0
                }
              }
            }
          }
        }
      }
      JOINT ShoulderRight
      {
        OFFSET 7.206021 -10.252579 -15.382527
        CHANNELS 3 Zrotation Xrotation Yrotation
        JOINT ElbowRight
        {
          OFFSET 3.256847 6.037154 25.423615
          CHANNELS 3 Zrotation Xrotation Yrotation
          JOINT WristRight
          {
            OFFSET 1.228607 0.940276 26.798218
            CHANNELS 3 Zrotation Xrotation Yrotation
            JOINT HandRight
            {
              OFFSET -3.349344 7.918170 0.061847
              CHANNELS 3 Zrotation Xrotation Yrotation
              JOINT HandTipRight
              {
                OFFSET 1.364224 -0.201488 1.492708
                CHANNELS 3 Zrotation Xrotation Yrotation
                End Site
                {
                  OFFSET 0 0 0
                }
              }
              JOINT ThumbRight
              {
                OFFSET -0.524486 0.486573 -3.604038
                CHANNELS 3 Zrotation Xrotation Yrotation
                End Site
                {
                  OFFSET 0 0 0
                }
              }
            }
          }
        }
      }
    }
  }
  JOINT HipLeft
  {
    OFFSET -4.588643 1.433922 -8.272151
    CHANNELS 3 Zrotation Xrotation Yrotation
    JOINT KneeLeft
    {
      OFFSET 2.842331 -33.237750 1.463785
      CHANNELS 3 Zrotation Xrotation Yrotation
      JOINT AnkleLeft
      {
        OFFSET -5.342513 -33.962732 -0.788692
        CHANNELS 3 Zrotation Xrotation Yrotation
        JOINT FootLeft
        {
          OFFSET 1.569833 -7.467531 -0.341334
          CHANNELS 3 Zrotation Xrotation Yrotation
          End Site
          {
            OFFSET 0 0 0
          }
        }
      }
    }
  }
  JOINT HipRight
  {
    OFFSET 4.387624 0.305163 0.641028
    CHANNELS 3 Zrotation Xrotation Yrotation
    JOINT KneeRight
    {
      OFFSET -16.696984 -31.497692 9.669931
      CHANNELS 3 Zrotation Xrotation Yrotation
      JOINT AnkleRight
      {
        OFFSET -3.172805 -35.522585 3.224286
        CHANNELS 3 Zrotation Xrotation Yrotation
        JOINT FootRight
        {
          OFFSET -5.141731 -2.358943 -13.852921
          CHANNELS 3 Zrotation Xrotation Yrotation
          End Site
          {
            OFFSET 0 0 0
          }
        }
      }
    }
  }
}
MOTION
Frames: 14
Frame Time: 0.033333
10.304610 75.639539 335.236452 0.000000 -0.000000 -44.797944 -0.000000 0.000000 44.797944 -0.000000 0.000000 0.000000 -0.000000 0.000000 0.000000 0.000000 0.000000 0.000000 -0.000000 0.000000 0.000000 -0.000000 0.000000 0.000000 -0.000000 0.000000 0.000000 -0.000000 0.000000 0.000000 0.000000 0.000000 0.000000 0.000000 0.000000 0.000000 -0.000000 0.000000 0.000000 -0.000000 0.000000 0.000000 -0.000000 0.000000 0.000000 -0.000000 0.000000 0.000000 0.000000 0.000000 0.000000 0.000000 0.000000 0.000000 -0.000000 0.000000 44.797944 -0.000000 0.000000 0.000000 -0.000000 0.000000 0.000000 0.000000 0.000000 0.000000 -0.000000 0.000000 44.797944 -0.000000 0.000000 0.000000 -0.000000 0.000000 0.000000 0.000000 0.000000 0.000000
10.296043 75.692307 335.221566 0.044143 0.041485 -44.835911 -0.002052 -0.060542 44.835894 -0.000000 0.000000 0.000000 -0.000000 0.000000 0.000000 0.000000 0.000000 0.000000 -0.000000 0.000000 0.000000 -0.000000 0.000000 0.000000 -0.000000 0.000000 0.000000 1.633874 0.946223 0.194002 0.000000 0.000000 0.000000 0.000000 0.000000 0.000000 -0.000000 0.000000 0.000000 -0.000000 0.000000 0.000000 -0.694095 -0.391001 -0.162760 5.785594 -3.703278 6.525151 0.000000 0.000000 0.000000 0.000000 0.000000 0.000000 -0.002052 -0.060542 44.835894 -0.000000 0.000000 0.000000 0.652961 -0.798143 -0.192918 0.000000 0.000000 0.000000 -0.002052 -0.060542 44.835894 -0.000000 0.000000 0.000000 0.843332 -1.865873 -0.981004 0.000000 0.000000 0.000000
10.288052 75.756254 335.206954 0.078130 0.075377 -44.851145 -0.002229 -0.108540 44.851092 -0.000000 0.000000 0.000000 -0.791252 -0.735287 0.530322 0.000000 0.000000 0.000000 -0.000000 0.000000 0.000000 -0.606210 -0.752747 -0.293804 0.602394 0.755804 0.285848 3.054426 1.758786 0.340676 0.000000 0.000000 0.000000 0.000000 0.000000 0.000000 -0.000000 0.000000 0.000000 -0.000000 0.000000 0.000000 -1.295762 -0.838883 -0.355936 10.494771 -5.846183 11.795950 0.000000 0.000000 0.000000 0.000000 0.000000 0.000000 -0.002229 -0.108540 44.851092 -0.000000 0.000000 0.000000 1.077172 -1.702777 -0.390708 0.000000 0.000000 0.000000 -0.002229 -0.108540 44.851092 -0.000000 0.000000 0.000000 1.695501 -3.851338 -1.950649 0.000000 0.000000 0.000000
10.280636 75.831379 335.192614 0.101920 0.101645 -44.843001 -0.000589 -0.143941 44.842910 -0.000000 0.000000 0.000000 -1.008755 -0.982228 0.677857 0.000000 0.000000 0.000000 -0.000000 0.000000 0.000000 -0.824821 -1.015962 -0.398838 0.817859 1.021575 0.384233 4.267775 2.438234 0.449990 0.000000 0.000000 0.000000 0.000000 0.000000 0.000000 -0.000000 0.000000 0.000000 -0.000000 0.000000 0.000000 -1.792291 -1.340130 -0.577727 13.619372 -6.643306 15.350831 0.000000 0.000000 0.000000 0.000000 0.000000 0.000000 -0.000589 -0.143941 44.842910 -0.000000 0.000000 0.000000 1.264902 -2.716086 -0.598172 0.000000 0.000000 0.000000 -0.000589 -0.143941 44.842910 -0.000000 0.000000 0.000000 2.554928 -5.958075 -2.902765 0.000000 0.000000 0.000000
10.273796 75.917682 335.178547 0.115465 0.120256 -44.810805 0.002837 -0.166690 44.810688 -0.000000 0.000000 0.000000 -1.108436 -1.147327 0.748613 0.000000 0.000000 0.000000 -0.000000 0.000000 0.000000 -0.986312 -1.203939 -0.474684 0.976523 1.211892 0.453993 5.279072 2.985396 0.530201 0.000000 0.000000 0.000000 0.000000 0.000000 0.000000 -0.000000 0.000000 0.000000 -0.000000 0.000000 0.000000 -2.173374 -1.889721 -0.824997 14.949889 -6.364709 17.052969 0.000000 0.000000 0.000000 0.000000 0.000000 0.000000 0.002837 -0.166690 44.810688 -0.000000 0.000000 0.000000 1.207708 -3.840130 -0.821720 0.000000 0.000000 0.000000 0.002837 -0.166690 44.810688 -0.317224 0.876459 -0.104699 3.762692 -9.053965 -3.666787 0.000000 0.000000 0.000000
10.267530 76.015164 335.164754 0.118717 0.131174 -44.753845 0.008049 -0.176736 44.753721 -0.000000 0.000000 0.000000 -1.090223 -1.229916 0.742960 0.000000 0.000000 0.000000 -0.000000 0.000000 0.000000 -1.090297 -1.316815 -0.520697 1.078575 1.326432 0.495681 6.092061 3.400812 0.587938 0.000000 0.000000 0.000000 0.000000 0.000000 0.000000 -0.000000 0.000000 0.000000 -0.000000 0.000000 0.000000 -2.431670 -2.481271 -1.093370 14.439991 -5.154365 16.932176 0.000000 0.000000 0.000000 0.000000 0.000000 0.000000 0.008049 -0.176736 44.753721 -0.000000 0.000000 0.000000 0.896272 -5.076490 -1.069498 0.000000 0.000000 0.000000 0.353719 0.566475 44.838152 -1.035220 0.785267 -0.206121 4.598209 -11.589469 -4.519959 0.000000 0.000000 0.000000
10.235443 76.122531 335.138449 0.091805 0.134568 -44.665171 0.029302 -0.160244 44.665104 -0.000000 0.000000 0.000000 -0.843361 -1.113384 0.586656 0.000000 0.000000 0.000000 -0.000000 0.000000 0.000000 -1.169544 -1.370847 -0.543558 1.156824 1.381597 0.515617 6.995331 4.584901 0.632857 0.000000 0.000000 0.000000 0.000000 0.000000 0.000000 -0.000000 0.000000 0.000000 -0.000000 0.000000 0.000000 -1.891403 -3.752968 -1.647061 9.343413 -0.964443 13.570049 0.000000 0.000000 0.000000 0.000000 0.000000 0.000000 0.029302 -0.160244 44.665104 -0.000000 0.000000 0.000000 -0.190060 -7.543220 -1.597147 0.000000 0.000000 0.000000 0.484313 0.855945 44.768036 -1.132627 1.006360 -0.243432 6.397812 -17.463450 -6.601508 0.000000 0.000000 0.000000
10.226599 76.239985 335.128755 0.076392 0.120743 -44.763486 0.030785 -0.139524 44.763443 -0.000000 0.000000 0.000000 -0.605722 -0.998324 0.435662 0.000000 0.000000 0.000000 -0.000000 0.000000 0.000000 -1.148504 -1.323617 -0.524778 1.136642 1.333817 0.498280 8.052929 3.754781 0.720068 0.000000 0.000000 0.000000 0.000000 0.000000 0.000000 -0.282399 0.516345 0.893790 0.223563 0.076210 -0.080021 -2.306613 -5.064319 -2.831959 5.637848 2.659017 10.398898 0.000000 0.000000 0.000000 0.000000 0.000000 0.000000 0.030785 -0.139524 44.763443 -0.000000 0.000000 0.000000 -1.752973 -10.605220 -2.335506 0.000000 0.000000 0.000000 0.539654 1.126529 44.857804 -1.346630 0.810103 -0.233635 7.646967 -21.188446 -7.431889 0.000000 0.000000 0.000000
10.224483 76.399172 335.120379 0.036134 0.116122 -44.608082 0.055822 -0.108045 44.608098 -0.000000 0.000000 0.000000 -0.179686 -0.816768 0.165836 0.000000 0.000000 0.000000 -0.000000 0.000000 0.000000 -1.062413 -1.188569 -0.470574 1.052846 1.197052 0.448555 8.490043 4.309034 0.733578 0.000000 0.000000 0.000000 0.000000 0.000000 0.000000 -0.348707 0.676287 1.077125 0.274213 0.086653 -0.094713 -2.628798 -7.238745 -3.933698 3.470412 6.659062 10.631142 0.000000 0.000000 0.000000 0.000000 0.000000 0.000000 0.055822 -0.108045 44.608098 -0.000000 0.000000 0.000000 -2.784624 -12.018224 -2.728219 0.000000 0.000000 0.000000 0.672648 1.284896 44.741905 -1.304814 0.951893 -0.272214 6.967498 -19.849099 -6.134822 0.000000 0.000000 0.000000
10.246279 76.510256 335.118976 0.037028 0.099257 -44.358749 0.042921 -0.096855 44.358753 -0.000000 0.000000 0.000000 -0.000000 0.000000 0.000000 0.000000 0.000000 0.000000 -0.000000 0.000000 0.000000 -0.897911 -0.997884 -0.393502 0.891174 1.003905 0.377875 7.730691 4.192346 0.687539 0.000000 0.000000 0.000000 0.000000 0.000000 0.000000 -0.275332 0.417282 0.920050 0.220304 0.097718 -0.089548 -2.273737 -6.223686 -3.398425 -6.032510 13.644922 6.798354 0.000000 0.000000 0.000000 0.000000 0.000000 0.000000 0.042921 -0.096855 44.358753 -0.000000 0.000000 0.000000 -4.434911 -12.663013 -3.001415 0.000000 0.000000 0.000000 0.647493 1.487427 44.448586 -1.265567 0.610132 -0.199513 6.490928 -18.811394 -6.383377 0.000000 0.000000 0.000000
10.272242 76.570577 335.126106 0.067649 0.084094 -43.876701 0.009522 -0.107505 43.876660 -0.000000 0.000000 0.000000 -0.047724 -0.854114 0.088609 0.000000 0.000000 0.000000 -0.000000 0.000000 0.000000 -0.858017 -0.984903 -0.387659 1.037152 1.945802 0.481940 5.822773 1.244247 0.577757 0.000000 0.000000 0.000000 0.000000 0.000000 0.000000 -0.228898 0.173124 0.864437 0.186522 0.190614 -0.120605 -1.525180 -4.715969 -2.660644 -2.251727 8.194966 3.590266 0.000000 0.000000 0.000000 0.000000 0.000000 0.000000 0.009522 -0.107505 43.876660 -0.000000 0.000000 0.000000 -3.446977 -10.015518 -2.278621 0.000000 0.000000 0.000000 0.646948 1.431818 43.984861 -1.527737 -0.664735 -0.124431 7.300308 -19.236816 -4.749601 0.000000 0.000000 0.000000
10.343960 76.587701 335.149304 0.120925 0.063645 -43.415097 -0.044097 -0.129341 43.414980 -0.000000 0.000000 0.000000 -0.092195 -1.003584 0.125941 0.000000 0.000000 0.000000 -0.000000 0.000000 0.000000 -0.629948 -0.914290 -0.355824 0.896940 2.972651 0.523169 4.371693 -0.551957 0.454046 0.000000 0.000000 0.000000 0.000000 0.000000 0.000000 -0.000000 0.000000 0.000000 -0.000000 0.000000 0.000000 -0.808545 -4.876622 -2.098875 2.083303 4.380761 7.897439 0.000000 0.000000 0.000000 0.000000 0.000000 0.000000 -0.936805 0.033261 43.453189 0.536245 -0.731999 -0.035532 -1.222997 -6.071129 -1.292407 0.000000 0.000000 0.000000 0.551907 1.139390 43.539863 -1.401418 0.400756 -0.226181 6.583172 -17.611849 -8.355332 0.000000 0.000000 0.000000
10.418807 76.467320 335.173892 0.140745 0.068684 -42.832042 -0.056520 -0.146055 42.831886 -0.000000 0.000000 0.000000 -0.628397 -0.970092 0.447463 0.000000 0.000000 0.000000 -0.000000 0.000000 0.000000 -0.360682 -0.860511 -0.329857 0.583234 3.376982 0.495261 3.287109 -2.123058 0.334888 0.000000 0.000000 0.000000 0.000000 0.000000 0.000000 -0.000000 0.000000 0.000000 -0.000000 0.000000 0.000000 -3.084484 -3.557179 -1.595310 14.195609 -0.088540 29.583786 0.000000 0.000000 0.000000 0.000000 0.000000 0.000000 -1.111621 0.058274 42.877312 0.634206 -0.867641 -0.041432 0.586725 -3.733705 -0.793192 0.000000 0.000000 0.000000 0.499396 0.515395 43.037396 -0.941970 0.904449 -0.305591 6.295154 -16.815573 -8.134650 0.000000 0.000000 0.000000
10.477897 76.375729 335.176455 0.168989 0.087620 -42.148179 -0.066494 -0.178362 42.147946 -0.000000 0.000000 0.000000 -1.311382 -0.783624 0.847945 0.000000 0.000000 0.000000 -0.000000 0.000000 0.000000 -0.424625 -0.968466 -0.372075 0.334230 4.207451 0.426080 2.562691 -2.260028 0.361280 0.000000 0.000000 0.000000 0.000000 0.000000 0.000000 -0.000000 0.000000 0.000000 0.059883 -1.107358 -0.357977 -8.777388 6.830882 3.579202 30.578865 -15.037418 37.061974 0.000000 0.000000 0.000000 0.000000 0.000000 0.000000 -1.186925 0.094133 42.200209 0.647035 -0.954463 -0.047697 2.585108 -1.315299 -0.363486 0.000000 0.000000 0.000000 -0.066494 -0.178362 42.147946 0.286009 1.483661 -0.110422 5.994158 -17.103555 -16.804388 0.000000 0.000000 0.000000
